HIERARCHY
ROOT hip
{
  OFFSET 0.0 0.0 0.0
  CHANNELS 6 Xposition Yposition Zposition Zrotation Yrotation Xrotation
  JOINT abdomen
  {
    OFFSET 0.0 20.6881 -0.73152
    CHANNELS 3 Zrotation Xrotation Yrotation
    JOINT chest
    {
      OFFSET 0.0 11.7043 -0.48768
      CHANNELS 3 Zrotation Xrotation Yrotation
      JOINT neck
      {
        OFFSET 0.0 22.1894 -2.19456
        CHANNELS 3 Zrotation Xrotation Yrotation
        JOINT head
        {
          OFFSET -0.24384 7.07133 1.2192
          CHANNELS 3 Zrotation Xrotation Yrotation
          JOINT leftEye
          {
            OFFSET 4.14528 8.04674 8.04672
            CHANNELS 3 Zrotation Xrotation Yrotation
            End Site
            {
              OFFSET 1.0 0.0 0.0
            }
          }
          JOINT rightEye
          {
            OFFSET -3.6576 8.04674 8.04672
            CHANNELS 3 Zrotation Xrotation Yrotation
            End Site
            {
              OFFSET 1.0 0.0 0.0
            }
          }
        }
      }
      JOINT rCollar
      {
        OFFSET -2.68224 19.2634 -4.8768
        CHANNELS 3 Zrotation Xrotation Yrotation
        JOINT rShldr
        {
          OFFSET -8.77824 -1.95073 1.46304
          CHANNELS 3 Zrotation Xrotation Yrotation
          JOINT rForeArm
          {
            OFFSET -28.1742 -1.7115 0.48768
            CHANNELS 3 Zrotation Xrotation Yrotation
            JOINT rHand
            {
              OFFSET -22.5879 0.773209 7.07136
              CHANNELS 3 Zrotation Xrotation Yrotation
              JOINT rThumb1
              {
                OFFSET -1.2192 -0.487915 3.41376
                CHANNELS 3 Zrotation Xrotation Yrotation
                JOINT rThumb2
                {
                  OFFSET -3.37035 -0.52449 3.41376
                  CHANNELS 3 Zrotation Xrotation Yrotation
                  End Site
                  {
                    OFFSET -1.78271 -1.18214 1.43049
                  }
                }
              }
              JOINT rIndex1
              {
                OFFSET -7.75947 0.938293 5.60832
                CHANNELS 3 Zrotation Xrotation Yrotation
                JOINT rIndex2
                {
                  OFFSET -2.54057 -0.884171 1.56538
                  CHANNELS 3 Zrotation Xrotation Yrotation
                  End Site
                  {
                    OFFSET -1.62519 -0.234802 1.16502
                  }
                }
              }
              JOINT rMid1
              {
                OFFSET -8.24714 1.18213 3.41376
                CHANNELS 3 Zrotation Xrotation Yrotation
                JOINT rMid2
                {
                  OFFSET -3.10165 -0.590103 1.0647
                  CHANNELS 3 Zrotation Xrotation Yrotation
                  End Site
                  {
                    OFFSET -2.48547 -0.328903 0.83742
                  }
                }
              }
              JOINT rRing1
              {
                OFFSET -8.82822 0.546677 1.51678
                CHANNELS 3 Zrotation Xrotation Yrotation
                JOINT rRing2
                {
                  OFFSET -2.60934 -0.819778 -0.0198488
                  CHANNELS 3 Zrotation Xrotation Yrotation
                  End Site
                  {
                    OFFSET -2.33842 -0.294052 0.168128
                  }
                }
              }
              JOINT rPinky1
              {
                OFFSET -8.27202 -0.0477905 -0.4584
                CHANNELS 3 Zrotation Xrotation Yrotation
                JOINT rPinky2
                {
                  OFFSET -1.82734 -0.647385 -0.700984
                  CHANNELS 3 Zrotation Xrotation Yrotation
                  End Site
                  {
                    OFFSET -1.69225 -0.51767 -0.607171
                  }
                }
              }
            }
          }
        }
      }
      JOINT lCollar
      {
        OFFSET 2.68224 19.2634 -4.8768
        CHANNELS 3 Zrotation Xrotation Yrotation
        JOINT lShldr
        {
          OFFSET 8.77824 -1.95073 1.46304
          CHANNELS 3 Zrotation Xrotation Yrotation
          JOINT lForeArm
          {
            OFFSET 28.1742 -1.7115 0.48768
            CHANNELS 3 Zrotation Xrotation Yrotation
            JOINT lHand
            {
              OFFSET 22.5879 0.773209 7.07136
              CHANNELS 3 Zrotation Xrotation Yrotation
              JOINT lThumb1
              {
                OFFSET 1.2192 -0.487915 3.41376
                CHANNELS 3 Zrotation Xrotation Yrotation
                JOINT lThumb2
                {
                  OFFSET 3.37035 -0.52449 3.41376
                  CHANNELS 3 Zrotation Xrotation Yrotation
                  End Site
                  {
                    OFFSET 1.78271 -1.18214 1.43049
                  }
                }
              }
              JOINT lIndex1
              {
                OFFSET 7.75947 0.938293 5.60832
                CHANNELS 3 Zrotation Xrotation Yrotation
                JOINT lIndex2
                {
                  OFFSET 2.54057 -0.884171 1.56538
                  CHANNELS 3 Zrotation Xrotation Yrotation
                  End Site
                  {
                    OFFSET 1.62519 -0.234802 1.16502
                  }
                }
              }
              JOINT lMid1
              {
                OFFSET 8.24714 1.18213 3.41376
                CHANNELS 3 Zrotation Xrotation Yrotation
                JOINT lMid2
                {
                  OFFSET 3.10165 -0.590103 1.0647
                  CHANNELS 3 Zrotation Xrotation Yrotation
                  End Site
                  {
                    OFFSET 2.48547 -0.328903 0.83742
                  }
                }
              }
              JOINT lRing1
              {
                OFFSET 8.82822 0.546677 1.51678
                CHANNELS 3 Zrotation Xrotation Yrotation
                JOINT lRing2
                {
                  OFFSET 2.60934 -0.819778 -0.0198488
                  CHANNELS 3 Zrotation Xrotation Yrotation
                  End Site
                  {
                    OFFSET 2.33842 -0.294052 0.168128
                  }
                }
              }
              JOINT lPinky1
              {
                OFFSET 8.27202 -0.0477905 -0.4584
                CHANNELS 3 Zrotation Xrotation Yrotation
                JOINT lPinky2
                {
                  OFFSET 1.82734 -0.647385 -0.700984
                  CHANNELS 3 Zrotation Xrotation Yrotation
                  End Site
                  {
                    OFFSET 1.69225 -0.51767 -0.607171
                  }
                }
              }
            }
          }
        }
      }
    }
  }
  JOINT rButtock
  {
    OFFSET -8.77824 4.35084 1.2192
    CHANNELS 3 Zrotation Xrotation Yrotation
    JOINT rThigh
    {
      OFFSET 0.0 -1.70687 -2.19456
      CHANNELS 3 Zrotation Xrotation Yrotation
      JOINT rShin
      {
        OFFSET 0.0 -36.8199 0.73152
        CHANNELS 3 Zrotation Xrotation Yrotation
        JOINT rFoot
        {
          OFFSET 0.73152 -45.1104 -5.12064
          CHANNELS 3 Zrotation Xrotation Yrotation
          End Site
          {
            OFFSET -1.1221 -3.69964 12.103
          }
        }
      }
    }
  }
  JOINT lButtock
  {
    OFFSET 8.77824 4.35084 1.2192
    CHANNELS 3 Zrotation Xrotation Yrotation
    JOINT lThigh
    {
      OFFSET 0.0 -1.70687 -2.19456
      CHANNELS 3 Zrotation Xrotation Yrotation
      JOINT lShin
      {
        OFFSET 0.0 -36.8199 0.73152
        CHANNELS 3 Zrotation Xrotation Yrotation
        JOINT lFoot
        {
          OFFSET -0.73152 -45.1104 -5.12064
          CHANNELS 3 Zrotation Xrotation Yrotation
          End Site
          {
            OFFSET 1.1221 -3.69964 12.103
          }
        }
      }
    }
  }
}
MOTION
Frames: 7
Frame Time: 0.00833333
0.0 82.248 0.0 -179.181 10.908 -167.95 0.0910808 -2.3309 -0.488842 6.49057 -14.1796 1.07312 0.672199 -1.61933 -2.52151 -4.96561 17.0559 -0.59713 -0.0 0.0 0.0 -0.0 0.0 0.0 0.0 0.0 0.0 0.0 0.0 0.0 0.0 0.0 0.0 -0.298708 -15.3679 -2.2137 6.12712e-10 1.25162e-09 -1.95465e-09 1.0717e-09 2.1531e-09 -3.37044e-09 6.12709e-10 1.25162e-09 -1.95466e-09 7.73091 5.47488 0.417314 6.12707e-10 1.25162e-09 -1.95465e-09 2.90554 0.965183 0.102902 6.12712e-10 1.25162e-09 -1.95466e-09 10.2786 0.731801 0.0259123 6.12704e-10 1.25163e-09 -1.95466e-09 2.22167 -0.733487 -0.20892 0.0 0.0 0.0 0.0 0.0 0.0 0.0 0.0 0.0 0.0263061 4.62495 -0.651423 1.66943e-09 3.02078e-09 -8.30099e-10 2.8859e-09 5.21985e-09 -1.44779e-09 1.66943e-09 3.02078e-09 -8.30093e-10 -7.73091 5.47488 -0.417314 1.66943e-09 3.02078e-09 -8.30093e-10 -2.90554 0.965183 -0.102902 1.66943e-09 3.02078e-09 -8.30097e-10 -10.2786 0.731801 -0.0259123 1.66944e-09 3.02078e-09 -8.30112e-10 -2.22167 -0.733487 0.20892 -2.03217e-16 0.0 -3.88251e-19 15.8778 -17.6679 11.5127 -0.022932 13.1089 0.114352 -8.30276 -22.3947 -23.0184 2.03217e-16 0.0 3.88251e-19 -0.792096 -10.974 -14.3501 0.0418653 9.70242 -0.121165 -6.6595 -13.4256 -21.5249
0.8479999999999848 81.9913 0.06182999999999961 -178.899 11.8592 -168.137 0.995774 -2.13111 -0.0620308 6.09081 -14.1229 1.13781 0.768945 -1.53465 -2.45521 -4.87783 17.4076 -0.404777 -0.0 0.0 0.0 -0.0 0.0 0.0 0.0 0.0 0.0 0.0 0.0 0.0 0.0 0.0 0.0 -0.281198 -14.9369 -2.14851 5.79745e-10 9.1806e-10 -1.7049e-09 1.01359e-09 1.57641e-09 -2.93997e-09 5.79743e-10 9.18058e-10 -1.70491e-09 7.73091 5.47488 0.417314 5.79741e-10 9.1806e-10 -1.7049e-09 2.90554 0.965183 0.102902 5.79746e-10 9.18058e-10 -1.7049e-09 10.2786 0.731801 0.0259123 5.79738e-10 9.18064e-10 -1.7049e-09 2.22167 -0.733487 -0.20892 0.0 0.0 0.0 0.0 0.0 0.0 0.0 0.0 0.0 0.0231906 4.35459 -0.613179 1.09359e-09 2.38701e-09 -5.22094e-11 1.89277e-09 4.12699e-09 -9.79195e-11 1.09359e-09 2.38701e-09 -5.22035e-11 -7.73091 5.47488 -0.417314 1.09359e-09 2.38701e-09 -5.22053e-11 -2.90554 0.965183 -0.102902 1.09359e-09 2.38701e-09 -5.22088e-11 -10.2786 0.731801 -0.0259123 1.0936e-09 2.38701e-09 -5.22229e-11 -2.22167 -0.733487 0.20892 -2.03217e-16 0.0 -3.88251e-19 17.0323 -17.5699 11.5249 -0.023845 13.6201 0.116574 -7.7125 -21.9539 -22.318 2.03217e-16 0.0 3.88251e-19 0.468731 -13.5429 -11.2192 0.0574465 14.1326 -0.227733 -5.82297 -11.9154 -19.7618
1.7299999999999898 81.6954 0.1464799999999995 -178.491 12.8532 -168.291 2.15481 -1.87139 0.438057 5.69511 -14.0762 1.22744 0.908369 -1.44227 -2.35986 -4.83425 17.741 -0.162039 -0.0 0.0 0.0 -0.0 0.0 0.0 0.0 0.0 0.0 0.0 0.0 0.0 0.0 0.0 0.0 -0.260981 -14.4124 -2.06962 1.68378e-10 3.51781e-10 -7.54066e-10 2.9578e-10 6.02487e-10 -1.30174e-09 1.68376e-10 3.51778e-10 -7.54083e-10 7.73091 5.47488 0.417314 1.68375e-10 3.51779e-10 -7.5407e-10 2.90554 0.965183 0.102902 1.68378e-10 3.51778e-10 -7.54072e-10 10.2786 0.731801 0.0259123 1.68371e-10 3.51783e-10 -7.54069e-10 2.22167 -0.733487 -0.20892 0.0 0.0 0.0 0.0 0.0 0.0 0.0 0.0 0.0 0.0198059 4.01947 -0.565826 1.30488e-10 9.19535e-10 8.76229e-10 2.29725e-10 1.59295e-09 1.51493e-09 1.30485e-10 9.19536e-10 8.76234e-10 -7.73091 5.47488 -0.417314 1.30489e-10 9.19535e-10 8.76229e-10 -2.90554 0.965183 -0.102902 1.30489e-10 9.19533e-10 8.76227e-10 -10.2786 0.731801 -0.0259123 1.30496e-10 9.19532e-10 8.76214e-10 -2.22167 -0.733487 0.20892 -2.03217e-16 0.0 -3.88251e-19 18.4732 -17.5227 11.5341 -0.0252204 14.2796 0.122504 -7.12546 -21.4978 -21.6836 2.03217e-16 0.0 3.88251e-19 2.08807 -16.4981 -8.38676 0.0947029 19.3951 -0.361807 -5.25215 -11.4628 -17.4369
2.6229999999999905 81.356 0.2610299999999999 -178.005 13.8753 -168.387 3.40692 -1.60219 0.979482 5.31157 -14.0393 1.33151 1.06861 -1.35471 -2.25137 -4.8208 18.0436 0.0961942 -0.0 0.0 0.0 -0.0 0.0 0.0 0.0 0.0 0.0 0.0 0.0 0.0 0.0 0.0 0.0 -0.242069 -13.8884 -1.99131 -3.32079e-10 -2.20255e-10 3.45504e-10 -5.77273e-10 -3.79943e-10 5.92753e-10 -3.3208e-10 -2.20257e-10 3.45484e-10 7.73091 5.47488 0.417314 -3.32081e-10 -2.20257e-10 3.45501e-10 2.90554 0.965183 0.102902 -3.32081e-10 -2.20258e-10 3.45501e-10 10.2786 0.731801 0.0259123 -3.32086e-10 -2.20254e-10 3.45507e-10 2.22167 -0.733487 -0.20892 0.0 0.0 0.0 0.0 0.0 0.0 0.0 0.0 0.0 0.0163441 3.64048 -0.512329 -8.69851e-10 -6.92354e-10 1.71609e-09 -1.49826e-09 -1.19117e-09 2.97458e-09 -8.69854e-10 -6.92352e-10 1.71609e-09 -7.73091 5.47488 -0.417314 -8.6985e-10 -6.92355e-10 1.71608e-09 -2.90554 0.965183 -0.102902 -8.69851e-10 -6.92356e-10 1.71608e-09 -10.2786 0.731801 -0.0259123 -8.69845e-10 -6.92359e-10 1.71607e-09 -2.22167 -0.733487 0.20892 -2.03217e-16 0.0 -3.88251e-19 20.0439 -17.5289 11.5914 -0.0248005 15.0156 0.140308 -6.5655 -21.0463 -21.1172 2.03217e-16 0.0 3.88251e-19 3.86596 -19.6564 -5.89607 0.148928 24.8981 -0.513999 -4.81937 -11.7181 -14.8509
3.5079999999999814 80.9825 0.41347999999999985 -177.499 14.9177 -168.417 4.59319 -1.37398 1.53038 4.94833 -14.0119 1.43953 1.22798 -1.2845 -2.14564 -4.82235 18.3032 0.334703 -0.0 0.0 0.0 -0.0 0.0 0.0 0.0 0.0 0.0 0.0 0.0 0.0 0.0 0.0 0.0 -0.227458 -13.4591 -1.9275 -6.32317e-10 -5.71085e-10 1.04148e-09 -1.10111e-09 -9.82158e-10 1.79198e-09 -6.32317e-10 -5.71088e-10 1.04145e-09 7.73091 5.47488 0.417314 -6.32318e-10 -5.71089e-10 1.04147e-09 2.90554 0.965183 0.102902 -6.32318e-10 -5.71089e-10 1.04147e-09 10.2786 0.731801 0.0259123 -6.32324e-10 -5.71086e-10 1.04148e-09 2.22167 -0.733487 -0.20892 0.0 0.0 0.0 0.0 0.0 0.0 0.0 0.0 0.0 0.0128805 3.23854 -0.455637 -1.5574e-09 -1.75937e-09 2.22824e-09 -2.68618e-09 -3.03428e-09 3.86483e-09 -1.5574e-09 -1.75937e-09 2.22825e-09 -7.73091 5.47488 -0.417314 -1.5574e-09 -1.75938e-09 2.22824e-09 -2.90554 0.965183 -0.102902 -1.5574e-09 -1.75938e-09 2.22824e-09 -10.2786 0.731801 -0.0259123 -1.5574e-09 -1.75938e-09 2.22823e-09 -2.22167 -0.733487 0.20892 -2.03217e-16 0.0 -3.88251e-19 21.5881 -17.5913 11.7482 -0.0207563 15.7562 0.178265 -6.05565 -20.6193 -20.6203 2.03217e-16 0.0 3.88251e-19 5.54885 -22.8354 -3.79998 0.204952 30.0501 -0.671441 -4.43061 -12.327 -12.3231
4.369 80.593 0.5988299999999995 -177.001 15.9811 -168.367 5.74956 -1.19466 2.09232 4.6283 -13.9908 1.55632 1.37974 -1.24274 -2.04899 -4.83622 18.5224 0.539879 -0.0 0.0 0.0 -0.0 0.0 0.0 0.0 0.0 0.0 0.0 0.0 0.0 0.0 0.0 0.0 -0.217851 -13.1688 -1.88447 -5.81965e-10 -6.1715e-10 1.12668e-09 -1.0141e-09 -1.06081e-09 1.93924e-09 -5.81962e-10 -6.17154e-10 1.12666e-09 7.73091 5.47488 0.417314 -5.81965e-10 -6.17156e-10 1.12668e-09 2.90554 0.965183 0.102902 -5.81964e-10 -6.17156e-10 1.12668e-09 10.2786 0.731801 0.0259123 -5.8197e-10 -6.17154e-10 1.12669e-09 2.22167 -0.733487 -0.20892 0.0 0.0 0.0 0.0 0.0 0.0 0.0 0.0 0.0 0.00895244 2.76307 -0.388614 -1.8371e-09 -2.05572e-09 2.2952e-09 -3.17e-09 -3.54633e-09 3.98142e-09 -1.8371e-09 -2.05572e-09 2.2952e-09 -7.73091 5.47488 -0.417314 -1.8371e-09 -2.05572e-09 2.29519e-09 -2.90554 0.965183 -0.102902 -1.8371e-09 -2.05572e-09 2.29519e-09 -10.2786 0.731801 -0.0259123 -1.83709e-09 -2.05573e-09 2.29518e-09 -2.22167 -0.733487 0.20892 -2.03217e-16 0.0 -3.88251e-19 23.1934 -17.7758 12.0807 -0.012744 16.605 0.244249 -5.63262 -20.264 -20.2777 2.03217e-16 0.0 3.88251e-19 7.07995 -26.1593 -2.22986 0.254223 35.0353 -0.836047 -4.02136 -13.4994 -9.73733
5.193999999999988 80.2219 0.8182099999999997 -176.51 17.0704 -168.221 6.93545 -1.03921 2.67899 4.34029 -13.9773 1.68495 1.53594 -1.22018 -1.95224 -4.86898 18.7059 0.7316 -0.0 0.0 0.0 -0.0 0.0 0.0 0.0 0.0 0.0 0.0 0.0 0.0 0.0 0.0 0.0 -0.210917 -12.961 -1.85368 -3.59728e-10 -4.87176e-10 9.15651e-10 -6.2767e-10 -8.36434e-10 1.57633e-09 -3.59723e-10 -4.8718e-10 9.15631e-10 7.73091 5.47488 0.417314 -3.59727e-10 -4.87184e-10 9.15652e-10 2.90554 0.965183 0.102902 -3.59724e-10 -4.87184e-10 9.15651e-10 10.2786 0.731801 0.0259123 -3.59732e-10 -4.87182e-10 9.15661e-10 2.22167 -0.733487 -0.20892 0.0 0.0 0.0 0.0 0.0 0.0 0.0 0.0 0.0 0.00534957 2.22163 -0.312364 -1.8962e-09 -1.96301e-09 2.06239e-09 -3.27327e-09 -3.38671e-09 3.5774e-09 -1.8962e-09 -1.96301e-09 2.0624e-09 -7.73091 5.47488 -0.417314 -1.8962e-09 -1.96301e-09 2.06239e-09 -2.90554 0.965183 -0.102902 -1.8962e-09 -1.96301e-09 2.06239e-09 -10.2786 0.731801 -0.0259123 -1.89619e-09 -1.96301e-09 2.06238e-09 -2.22167 -0.733487 0.20892 -2.03217e-16 0.0 -3.88251e-19 24.9042 -18.0576 12.5422 -0.00377947 17.5594 0.332604 -5.26773 -19.9592 -20.0576 2.03217e-16 0.0 3.88251e-19 8.4797 -29.6714 -1.13449 0.3138 40.055 -1.02336 -3.49115 -15.3415 -6.96027
